<svg id="logo_white_horizontal"  viewBox="0 0 1275.591 425.197" fill="none" xmlns="http://www.w3.org/2000/svg">
<g>
	<line fill="#202C37" x1="536.617" y1="337.87" x2="529.152" y2="337.87"/>
	<g>
		<g>
			<path fill="#202C37" d="M303.747,282.091c4.701,4.316,8.047,5.467,13.663,3.727c-8.519,0.441-11.977-6.412-11.977-6.412
				c5.999-1.434,12.261-1.043,19.866,2.043c-3.828-4.041-12.27-6.547-21.393-5.322c-10.361-3.557-12.12-2.801-25.516-1.426
				c-10.703,1.105-19.705,1.096-24.911-3.363c-3.739-3.205-5.472-6.875-5.694-10.417v-5.333v-0.57
				c0-7.761,8.57-22.152,20.037-29.791l25.475-16.961l5.707,8.562l18.531-37.422l-41.686,2.665l5.838,8.753l-25.473,16.973
				c-2.953,1.968-5.777,4.226-8.43,6.688v-59.472h10.295l-20.879-36.169l-20.891,36.169h10.528v52.16
				c-2.657-2.693-5.479-5.075-8.415-7.031l-25.48-16.966l5.712-8.569l-41.69-2.675l18.533,37.438l5.838-8.768l25.463,16.963
				c10.687,7.11,20.04,24.607,20.04,37.433v0.02v5.903c-0.219,3.542-1.948,7.212-5.696,10.417
				c-5.206,4.459-14.197,4.469-24.912,3.363c-13.383-1.375-15.155-2.131-25.513,1.426c-9.126-1.225-17.565,1.281-21.401,5.322
				c7.61-3.086,13.877-3.477,19.881-2.043c0,0-3.465,6.854-11.986,6.412c5.617,1.74,8.963,0.59,13.68-3.727
				c4.627-4.24,10.054-5.027,16.021-2.877c-3.554,1.027-6.819,2.588-9.522,5.049c-4.834,4.375-5.543,10.518-16.292,8.484
				c1.616,1.33,9.218,4.234,14.993-2.584c0,0,3.853,7.855-0.955,12.752c1.16-0.195,6.848-3.531,3.77-15.168
				c0,0,7.297-7.586,19.67-5.807c-1.088,0.729-1.763,2.973-1.909,3.83c-4.996,0.479-11.287,2.191-10.796,8.959
				c1.63-6.174,8.578-6.148,10.344-6.031c-0.775,3.014-2.644,6.611-7.019,9.484c4.337-1.115,8.09-3.697,9.669-8.057
				c2.753-7.611,2.312-7.111,7.849-7.318c10.904-0.426,24.099-5.094,25.404-16.111c0.176,9.238-5.565,12.051-11.125,14.904
				c-8.808,4.512-9.768,6.266-15.959,14.203c-1.943,2.508-4.67,4.619-6.358,5.313c-2.304,0.971-10.369,2.803-11.233,8.42
				c1.945-3.477,5.458-4.432,8.781-5.197c3.906-0.893,7.321-2.633,10.251-5.146c0,0,2.018,4.83-2.506,9.813
				c3.609-1.154,6.424-4.754,5.577-11.736c0,0,8.478-9.432,16.171-10.387c0,0,0.25,4.914-0.259,9.777
				c-1.925,17.951-18.492,8.406-20.198,19.477c3.444-4.732,10.217-4.514,14.869-5.441c0,0-0.789,6.424,2.706,8.957
				c0,0-1.743-6.703,0.619-10.066c0,0,6.581-3.414,7.548-10.723c0,0,4.904,8.17,1.159,14.426c3.694-2.494,4.903-12.025,0.281-19.246
				c0.574-10.145,6.232-10.771,6.093-19.348c1.736,4.039-1.221,10.111-1.221,10.111c5.596,4.586,7.537,20.479,4.58,25.988
				c-3.199,5.939-11.73,2.746-13.414,9.137c4.361-5.283,13.153-0.559,16.49-8.969c0.968,2.27,0.894,6.443-0.871,9.242
				c3.974-1.967,3.949-8.75,3.31-13.584c1.009,1.051,2.233,2.045,3.765,2.965c2.369,3.363,0.619,10.066,0.619,10.066
				c3.494-2.533,2.706-8.957,2.706-8.957c4.651,0.928,11.423,0.709,14.87,5.441c-1.484-9.611-15.586-3.771-19.627-13.861
				c-1.777-4.428-1.021-9.898-3.083-16.691c12.462,1.713,18.421,11.686,18.421,11.686c-0.836,6.982,1.97,10.582,5.578,11.736
				c-4.527-4.982-2.49-9.813-2.49-9.813c2.908,2.514,6.325,4.254,10.234,5.146c3.33,0.766,6.834,1.721,8.783,5.203
				c-0.865-5.623-8.934-7.455-11.232-8.426c-1.683-0.693-4.416-2.805-6.377-5.313c-6.176-7.938-7.133-9.691-15.946-14.203
				c-5.538-2.854-11.287-5.666-11.111-14.904c1.297,11.018,14.498,15.686,25.405,16.111c5.527,0.207,5.084-0.293,7.84,7.318
				c1.574,4.359,5.332,6.941,9.664,8.057c-4.371-2.873-6.24-6.471-7.014-9.484c1.758-0.117,8.709-0.143,10.346,6.031
				c0.488-6.768-5.805-8.48-10.799-8.959c-0.148-0.857-0.822-3.102-1.912-3.83c12.375-1.779,19.666,5.807,19.666,5.807
				c-3.071,11.637,2.616,14.973,3.767,15.168c-4.8-4.896-0.943-12.752-0.943-12.752c5.771,6.818,13.372,3.914,14.978,2.584
				c-10.733,2.033-11.44-4.109-16.27-8.484c-2.705-2.461-5.979-4.021-9.541-5.049C293.679,277.063,299.111,277.851,303.747,282.091z
				"/>
			<path fill="#202C37" d="M315.964,174.016c2.935-5.166,1.48-11.732-3.383-15.161C309.645,164.019,311.108,170.591,315.964,174.016
				z"/>
			<path fill="#202C37" d="M260.244,161.296c-5.817,3.792-7.815,11.4-4.604,17.565C261.46,175.067,263.46,167.453,260.244,161.296z"
				/>
			<path fill="#202C37" d="M266.966,183.284c-7.446,0.59-13.26,6.757-13.408,14.233
				C261.015,196.937,266.828,190.764,266.966,183.284z"/>
			<path fill="#202C37" d="M307.82,219.844c6.69-1.118,11.452-7.149,10.99-13.927C312.112,207.043,307.354,213.071,307.82,219.844z"
				/>
			<path fill="#202C37" d="M295.133,155.433c6.892,3.76,15.54,1.667,19.938-4.829C308.183,146.849,299.548,148.939,295.133,155.433z
				"/>
			<path fill="#202C37" d="M289.063,164.919c3.618,6.969,11.96,10.051,19.239,7.116C304.663,165.071,296.34,161.986,289.063,164.919
				z"/>
			<path fill="#202C37" d="M267.335,168.968c4.672,6.305,13.385,8.054,20.113,4.018
				C282.785,166.676,274.067,164.936,267.335,168.968z"/>
			<path fill="#202C37" d="M316.251,198.271c4.96-2.145,7.495-7.722,5.842-12.871C317.134,187.539,314.596,193.119,316.251,198.271z
				"/>
			<path fill="#202C37" d="M284.866,159.455c4.971-2.145,7.502-7.72,5.852-12.871C285.746,148.727,283.22,154.302,284.866,159.455z"
				/>
			<path fill="#202C37" d="M298.573,224.376c-1.022-4.7-5.469-7.87-10.244-7.287C289.36,221.792,293.8,224.945,298.573,224.376z"/>
			<path fill="#202C37" d="M173.339,220.124c-2.296-4.222-7.455-6.023-11.874-4.13C163.769,220.222,168.913,222.009,173.339,220.124
				z"/>
			<path fill="#202C37" d="M168.251,207.304c-3.539-5.398-10.644-7.245-16.355-4.224
				C155.446,208.487,162.532,210.313,168.251,207.304z"/>
			<path fill="#202C37" d="M211.578,232.168c-0.126-4.82-3.896-8.756-8.695-9.084C203.011,227.886,206.787,231.825,211.578,232.168z
				"/>
			<path fill="#202C37" d="M197.873,146.479c-7.054-0.136-12.868-5.624-13.403-12.666
				C191.526,133.954,197.339,139.45,197.873,146.479z"/>
			<path fill="#202C37" d="M222.184,132.82c-2.735,6.412-9.898,9.726-16.552,7.628C208.37,134.03,215.541,130.725,222.184,132.82z"
				/>
			<path fill="#202C37" d="M208.688,146.456c0.229,6.965-4.875,12.986-11.792,13.895
				C196.661,153.385,201.779,147.356,208.688,146.456z"/>
			<path fill="#202C37" d="M210.218,159.946c7.102,1.347,12.031,7.883,11.375,15.085
				C214.497,173.687,209.562,167.149,210.218,159.946z"/>
			<path fill="#202C37" d="M204.013,176.566c7.449,0.591,13.26,6.751,13.408,14.229
				C209.964,190.213,204.153,184.053,204.013,176.566z"/>
			<path fill="#202C37" d="M177.966,138.831c-7.842-0.158-14.304-6.255-14.896-14.082
				C170.91,124.911,177.368,131.011,177.966,138.831z"/>
			<path fill="#202C37" d="M178.708,155.433c-6.897,3.76-15.525,1.667-19.93-4.829C165.664,146.849,174.304,148.939,178.708,155.433
				z"/>
			<path fill="#202C37" d="M176.573,164.919c-4.605,4.092-11.569,4.033-16.084-0.151
				C165.09,160.679,172.056,160.746,176.573,164.919z"/>
			<path fill="#202C37" d="M198.058,167.265c-4.623,3.835-11.418,3.53-15.678-0.705C187,162.731,193.79,163.036,198.058,167.265z"/>
			<path fill="#202C37" d="M160.611,194.396c-6.493-0.745-11.359-6.316-11.249-12.84
				C155.852,182.307,160.722,187.871,160.611,194.396z"/>
			<path fill="#202C37" d="M188.975,159.455c-4.958-2.145-7.493-7.72-5.843-12.871C188.095,148.727,190.639,154.302,188.975,159.455
				z"/>
			<path fill="#202C37" d="M212.081,129.945c-4.977-2.141-7.508-7.718-5.861-12.871C211.18,119.22,213.727,124.791,212.081,129.945z
				"/>
			<path fill="#202C37" d="M202.565,127.54c-3.979,3.666-10.107,3.699-14.139,0.089C192.419,123.97,198.532,123.93,202.565,127.54z"
				/>
			<path fill="#202C37" d="M149.022,211.045c-2.844,7.78-11.152,12.133-19.156,10.047
				C132.705,213.318,141.016,208.97,149.022,211.045z"/>
			<path fill="#202C37" d="M146.57,198.533c-5.562,6.252-14.995,7.26-21.753,2.311C130.39,194.595,139.819,193.598,146.57,198.533z"
				/>
			<path fill="#202C37" d="M158.704,222.982c-1.88,7.199-8.937,11.822-16.281,10.646
				C144.301,226.421,151.357,221.814,158.704,222.982z"/>
			<path fill="#202C37" d="M173.887,228.539c0.042,7.674-5.775,14.135-13.406,14.915
				C160.449,235.771,166.254,229.32,173.887,228.539z"/>
			<path fill="#202C37" d="M185.685,227.883c3.371,6.891,0.955,15.243-5.588,19.258
				C176.724,240.248,179.155,231.898,185.685,227.883z"/>
			<path fill="#202C37" d="M194.971,226.978c5.363,2.663,7.838,8.998,5.696,14.594C195.302,238.898,192.834,232.57,194.971,226.978z
				"/>
			<path fill="#202C37" d="M175.603,214.621c7.41-3.752,16.471-1.261,20.901,5.755C189.107,224.111,180.042,221.612,175.603,214.621
				z"/>
			<path fill="#202C37" d="M225.381,109.987c3.298-7.573,0.306-16.4-6.905-20.407C215.181,97.152,218.169,105.982,225.381,109.987z"
				/>
			<path fill="#202C37" d="M146.722,185.311c-5.002-6.333-13.982-7.816-20.756-3.462C130.96,188.17,139.944,189.672,146.722,185.311
				z"/>
			<path fill="#202C37" d="M150.604,169.406c-4.21-6.278-12.498-8.328-19.151-4.724
				C135.666,170.938,143.947,172.993,150.604,169.406z"/>
			<path fill="#202C37" d="M155.774,158.258c-1.4-6.688-7.628-11.222-14.414-10.476
				C142.763,154.461,148.981,158.987,155.774,158.258z"/>
			<path fill="#202C37" d="M167.401,143.783c-3.129-6.773-10.883-10.063-17.91-7.603
				C152.608,142.938,160.361,146.237,167.401,143.783z"/>
			<path fill="#202C37" d="M212.897,112.871c0.439-8.109-5.338-15.214-13.361-16.431
				C199.101,104.536,204.878,111.646,212.897,112.871z"/>
			<path fill="#202C37" d="M199.858,117.134c-1.101-7.53-7.729-12.983-15.322-12.607
				C185.642,112.033,192.265,117.497,199.858,117.134z"/>
			<path fill="#202C37" d="M186.081,124.452c-1.029-6.952-7.14-11.974-14.143-11.634
				C172.952,119.749,179.065,124.788,186.081,124.452z"/>
			<path fill="#202C37" d="M256.941,126.466c-0.61-6.722-6.226-11.896-12.983-11.941
				C244.575,121.248,250.195,126.411,256.941,126.466z"/>
			<path fill="#202C37" d="M273.786,141.652c6.299,3.18,14.002,1.043,17.77-4.931C285.251,133.548,277.548,135.693,273.786,141.652z
				"/>
			<path fill="#202C37" d="M251.657,132.82c2.735,6.412,9.897,9.726,16.549,7.628C265.473,134.03,258.299,130.725,251.657,132.82z"
				/>
			<path fill="#202C37" d="M265.15,146.456c-0.228,6.965,4.877,12.986,11.794,13.895
				C277.179,153.385,272.061,147.356,265.15,146.456z"/>
			<path fill="#202C37" d="M295.871,138.831c7.843-0.158,14.307-6.255,14.897-14.082
				C302.931,124.911,296.473,131.011,295.871,138.831z"/>
			<path fill="#202C37" d="M295.133,155.433c6.896,3.76,15.524,1.667,19.929-4.829C308.177,146.849,299.537,148.939,295.133,155.433
				z"/>
			<path fill="#202C37" d="M284.866,159.455c4.957-2.145,7.492-7.72,5.842-12.871C285.746,148.727,283.202,154.302,284.866,159.455z
				"/>
			<path fill="#202C37" d="M261.76,129.945c4.976-2.141,7.507-7.718,5.858-12.871C262.66,119.22,260.114,124.791,261.76,129.945z"/>
			<path fill="#202C37" d="M271.274,127.54c3.979,3.666,10.105,3.699,14.139,0.089C281.421,123.97,275.308,123.93,271.274,127.54z"
				/>
			<path fill="#202C37" d="M324.817,211.045c2.844,7.78,11.152,12.133,19.157,10.047
				C341.133,213.318,332.825,208.97,324.817,211.045z"/>
			<path fill="#202C37" d="M327.271,198.533c5.561,6.252,14.995,7.26,21.752,2.311C343.45,194.595,334.021,193.598,327.271,198.533z
				"/>
			<path fill="#202C37" d="M315.134,222.982c1.878,7.199,8.934,11.819,16.283,10.646
				C329.54,226.421,322.485,221.817,315.134,222.982z"/>
			<path fill="#202C37" d="M299.954,228.539c-0.043,7.674,5.775,14.135,13.405,14.915
				C313.392,235.771,307.584,229.32,299.954,228.539z"/>
			<path fill="#202C37" d="M288.155,226.926c-3.373,6.892-0.955,15.242,5.588,19.259
				C297.116,239.292,294.685,230.94,288.155,226.926z"/>
			<path fill="#202C37" d="M278.87,226.978c-5.366,2.663-7.838,8.998-5.699,14.594C278.536,238.898,281.007,232.57,278.87,226.978z"
				/>
			<path fill="#202C37" d="M236.925,110.47c-5.113-6.563-5.113-16.576,0-23.143C242.026,93.894,242.028,103.906,236.925,110.47z"/>
			<path fill="#202C37" d="M248.46,109.987c-3.299-7.568-0.305-16.398,6.907-20.407C258.655,97.149,255.671,105.979,248.46,109.987z
				"/>
			<path fill="#202C37" d="M327.116,185.311c5.004-6.333,13.985-7.816,20.758-3.462
				C342.878,188.167,333.894,189.668,327.116,185.311z"/>
			<path fill="#202C37" d="M323.235,169.406c4.213-6.278,12.5-8.328,19.152-4.724C338.17,170.938,329.888,172.993,323.235,169.406z"
				/>
			<path fill="#202C37" d="M318.063,158.258c1.402-6.688,7.628-11.222,14.414-10.476
				C331.077,154.461,324.856,158.987,318.063,158.258z"/>
			<path fill="#202C37" d="M306.437,143.783c3.131-6.773,10.886-10.063,17.913-7.603
				C321.231,142.938,313.479,146.237,306.437,143.783z"/>
			<path fill="#202C37" d="M260.94,111.914c-0.438-8.11,5.343-15.214,13.363-16.431C274.742,103.58,268.962,110.69,260.94,111.914z"
				/>
			<path fill="#202C37" d="M273.981,117.134c1.102-7.53,7.729-12.983,15.322-12.607
				C288.198,112.033,281.576,117.497,273.981,117.134z"/>
			<path fill="#202C37" d="M287.759,124.452c1.029-6.952,7.14-11.974,14.143-11.634
				C300.888,119.749,294.774,124.788,287.759,124.452z"/>
			<g>
				<path fill="#202C37" d="M216.929,126.466c0.607-6.722,6.225-11.896,12.982-11.941
					C229.294,121.248,223.674,126.411,216.929,126.466z"/>
			</g>
		</g>
		<g>
			<g>
				<path fill="#202C37" d="M441.455,243.52h22.471v5.67H448.64v7.014h13.192v5.672H448.64v11.048h-7.185V243.52z"/>
				<path fill="#202C37" d="M472.39,242.511c2.011,0,2.813,0.8,2.813,2.816c0,2.014-0.802,2.855-2.813,2.855
					c-2.063,0-2.861-0.842-2.861-2.855C469.528,243.311,470.327,242.511,472.39,242.511z M470.37,251.918h3.99v21.005h-3.99V251.918
					z"/>
				<path fill="#202C37" d="M481.511,251.918h3.992v4.494c1.344-3.571,4.113-5.165,8.352-5.165c6.937,0,9.326,2.523,9.285,10.08
					h-0.041v11.596h-3.992l0.041-11.637c0-4.996-1.682-6.679-6.638-6.679c-4.874,0-7.007,2.394-6.966,7.729h-0.041v10.586h-3.992
					V251.918z"/>
				<path fill="#202C37" d="M518.407,254.231c-4.534,0-6.135,1.046-6.135,4.324v0.923h-3.869v-0.923c0-5.417,2.564-7.35,10.045-7.35
					c7.89,0,10.834,2.014,10.834,7.896v13.821h-3.991v-3.532c-1.045,2.731-3.445,4.202-8.228,4.202c-6.978,0-9.49-1.887-9.49-6.591
					c0-4.916,2.513-6.6,9.49-6.6h8.228v-0.883C525.291,255.576,524.07,254.231,518.407,254.231z M517.946,270.567
					c5.417,0,7.345-2.181,7.345-5.419v-1.928h-7.345c-4.791,0-6.516,0.924-6.516,3.692
					C511.431,269.644,513.155,270.567,517.946,270.567z"/>
				<path fill="#202C37" d="M535.632,251.918h3.992v4.494c1.345-3.571,4.116-5.165,8.363-5.165c6.926,0,9.328,2.523,9.285,10.08
					h-0.052v11.596h-3.981l0.043-11.637c0-4.996-1.684-6.679-6.64-6.679c-4.872,0-7.019,2.394-6.976,7.729h-0.043v10.586h-3.992
					V251.918z"/>
				<path fill="#202C37" d="M561.778,266.24h3.865c0,3.403,1.264,4.327,6.886,4.327c5.172,0,6.762-1.006,6.762-3.565
					c0-2.567-1.673-3.196-6.927-3.196h-2.482c-6.546,0-8.188-2.311-8.188-6.004c0-4.451,2.813-6.555,10.67-6.555
					c8.025,0,10.714,1.932,10.714,7.35h-3.868c0-3.4-1.221-4.323-6.886-4.323c-5.169,0-6.761,1.004-6.761,3.528
					c0,2.771,1.848,3.064,6.761,3.064h3.231c5.922,0,7.604,2.058,7.604,6.177c0,4.452-2.77,6.55-10.63,6.55
					C564.466,273.593,561.778,271.661,561.778,266.24z"/>
				<path fill="#202C37" d="M586.113,262.38c0-8.318,2.731-11.133,10.837-11.133c8.352,0,11.172,2.395,11.297,9.407v2.857h-18.193
					c0,5.208,1.725,6.974,6.896,6.974c4.873,0,6.719-1.006,7.183-4.034h3.949c-0.802,5.255-3.663,7.142-11.132,7.142
					C588.845,273.593,586.113,270.778,586.113,262.38z M604.378,260.654c-0.123-4.785-1.97-6.468-7.428-6.468
					c-4.958,0-6.721,1.642-6.896,6.468H604.378z"/>
				<path fill="#202C37" d="M683.022,243.52h22.472v5.67h-15.292v6.129h13.188v5.675h-13.188v6.259h15.292v5.671h-22.472V243.52z"/>
				<path fill="#202C37" d="M727.93,270.104c-1.508,2.523-4.275,3.488-8.063,3.488c-7.684,0-10.24-2.814-10.24-11.213
					c0-8.359,2.557-11.174,10.24-11.174c3.664,0,6.516,1.01,8.063,3.61V243.52h3.992v29.403h-3.992V270.104z M720.791,270.151
					c4.627,0,6.813-1.683,7.139-6.428v-2.607c-0.326-4.826-2.688-6.468-7.139-6.468c-5.418,0-7.223,1.933-7.223,7.731
					C713.568,268.175,715.373,270.151,720.791,270.151z"/>
				<path fill="#202C37" d="M736.818,262.38v-10.421h3.949v10.421c0,5.795,1.764,7.771,7.139,7.771c5.297,0,7.102-1.977,7.102-7.771
					v-10.503h3.898v10.503c0,8.398-2.77,11.213-11,11.213C739.588,273.593,736.818,270.778,736.818,262.38z"/>
				<path fill="#202C37" d="M763.752,243.52h3.988v18.228l9.666-9.829h5.162l-10.334,10.5l10.334,10.505h-5.162l-9.666-9.831v9.831
					h-3.988V243.52z"/>
				<path fill="#202C37" d="M794.17,254.231c-4.535,0-6.123,1.046-6.123,4.324v0.923h-3.869v-0.923c0-5.417,2.566-7.35,10.033-7.35
					c7.9,0,10.834,2.014,10.834,7.896v13.821h-3.979v-3.532c-1.055,2.731-3.449,4.202-8.238,4.202c-6.967,0-9.492-1.887-9.492-6.591
					c0-4.916,2.525-6.6,9.492-6.6h8.238v-0.883C801.066,255.576,799.844,254.231,794.17,254.231z M793.709,270.567
					c5.418,0,7.357-2.181,7.357-5.419v-1.928h-7.357c-4.791,0-6.502,0.924-6.502,3.692
					C787.207,269.644,788.918,270.567,793.709,270.567z"/>
				<path fill="#202C37" d="M809.521,262.38c0-8.318,2.811-11.133,11.172-11.133c8.107,0,10.918,2.267,10.918,8.905h-3.859
					c0-4.324-1.846-5.757-7.059-5.757c-5.377,0-7.223,1.683-7.223,6.721v2.607c0,4.954,1.846,6.639,7.223,6.639
					c5.162,0,7.02-1.433,7.02-5.676h3.898c-0.287,6.641-3.111,8.906-10.918,8.906C812.332,273.593,809.521,270.778,809.521,262.38z"
					/>
				<path fill="#202C37" d="M831.537,277.878h3.408c4.156,0,5.162-1.428,5.162-5.461v-20.499h3.99v21.296
					c0,6.094-1.723,8.105-8.268,8.105h-4.293V277.878z M842.127,242.511c2.01,0,2.854,0.8,2.854,2.816
					c0,2.014-0.844,2.855-2.854,2.855c-2.02,0-2.811-0.842-2.811-2.855C839.316,243.311,840.107,242.511,842.127,242.511z"/>
				<path fill="#202C37" d="M859.898,254.231c-4.537,0-6.127,1.046-6.127,4.324v0.923h-3.865v-0.923c0-5.417,2.563-7.35,10.033-7.35
					c7.9,0,10.834,2.014,10.834,7.896v13.821h-3.98v-3.532c-1.059,2.731-3.447,4.202-8.238,4.202c-6.967,0-9.49-1.887-9.49-6.591
					c0-4.916,2.523-6.6,9.49-6.6h8.238v-0.883C866.793,255.576,865.572,254.231,859.898,254.231z M859.438,270.567
					c5.414,0,7.355-2.181,7.355-5.419v-1.928h-7.355c-4.791,0-6.506,0.924-6.506,3.692
					C852.932,269.644,854.646,270.567,859.438,270.567z"/>
				<path fill="#202C37" d="M947.07,243.52h13.521c8.568,0,11.473,2.646,11.473,10.542c0,4.956-1.182,7.813-4.248,9.2l5.5,9.661
					h-8.064l-4.824-8.488h-6.176v8.488h-7.182V243.52z M960.592,258.516c3.404,0,4.535-1.18,4.535-4.541
					c0-3.359-1.131-4.494-4.535-4.494h-6.34v9.035H960.592z"/>
				<path fill="#202C37" d="M976.402,262.38c0-8.318,2.77-11.133,11.08-11.133c8.242,0,11.012,2.814,11.012,11.133
					c0,8.398-2.77,11.213-11.012,11.213C979.172,273.593,976.402,270.778,976.402,262.38z M987.482,270.151
					c5.295,0,7.102-1.977,7.102-7.771c0-5.759-1.807-7.687-7.102-7.687c-5.373,0-7.139,1.928-7.139,7.687
					C980.344,268.175,982.109,270.151,987.482,270.151z"/>
				<path fill="#202C37" d="M1012.283,255.237h-10.414v-3.319h16.754l-11.256,17.685h10.795v3.32h-17.135L1012.283,255.237z"/>
				<path fill="#202C37" d="M1021.279,251.918h4.168l6.084,16.339l6.135-16.339h4.154l6.137,16.339l6.094-16.339h4.197
					l-8.361,21.005h-3.857l-6.26-15.797l-6.299,15.797h-3.826L1021.279,251.918z"/>
				<path fill="#202C37" d="M1058.811,262.38c0-8.318,2.773-11.133,11.092-11.133c8.23,0,11,2.814,11,11.133
					c0,8.398-2.77,11.213-11,11.213C1061.584,273.593,1058.811,270.778,1058.811,262.38z M1069.902,270.151
					c5.297,0,7.1-1.977,7.1-7.771c0-5.759-1.803-7.687-7.1-7.687c-5.377,0-7.139,1.928-7.139,7.687
					C1062.764,268.175,1064.525,270.151,1069.902,270.151z M1069.104,245.029h3.869l-2.4,5.375h-1.891L1069.104,245.029z"/>
				<path fill="#202C37" d="M1080.83,277.878h3.406c4.156,0,5.16-1.428,5.16-5.461v-20.499h3.992v21.296
					c0,6.094-1.723,8.105-8.27,8.105h-4.289V277.878z M1091.42,242.511c2.01,0,2.852,0.8,2.852,2.816
					c0,2.014-0.842,2.855-2.852,2.855c-2.023,0-2.813-0.842-2.813-2.855C1088.607,243.311,1089.396,242.511,1091.42,242.511z"/>
			</g>
			<path fill="#202C37" d="M633.198,261.147c6.846,6.211,17.264,6.211,24.102,0C650.462,254.955,640.044,254.95,633.198,261.147z"/>
			<path fill="#202C37" d="M896.059,261.147c6.846,6.211,17.264,6.211,24.102,0C913.322,254.955,902.904,254.95,896.059,261.147z"/>
			<g>
				<polygon fill="#202C37" points="588.567,198.632 560.112,198.632 589.948,151.009 533.29,151.009 533.29,165.072 
					561.377,165.072 531.53,212.688 588.567,212.688 				"/>
				<path fill="#202C37" d="M721.027,176.096h-11.521c-11.764,0-17.421-0.312-17.421-7.305c0-7.048,5.868-8.336,17.421-8.336
					c11.467,0,16.889,1.272,17.389,8.582h18.813c-0.471-14.798-10.133-20.081-36.201-20.081c-26.457,0-35.835,5.124-35.835,19.578
					c0,11.946,4.098,18.422,25.724,18.422h10.373c12.457,0,17.666,1.106,17.666,7.956c0,7-6.123,8.325-17.422,8.325
					c-11.545,0-17.009-1.271-17.511-8.566h-18.688c0.465,14.793,10.096,20.074,36.077,20.074c26.555,0,35.967-5.124,35.967-19.581
					C745.857,183.086,741.797,176.096,721.027,176.096z"/>
				<path fill="#202C37" d="M1048.471,195.301c-2.219,5.82-8.25,7.046-16.574,7.046c-12.197,0-16.885-4.018-17.297-14.823
					l-0.047-1.209h54.332v-11.251c-0.369-19.513-9.701-26.107-36.988-26.107c-27.621,0-36.486,7.961-36.486,32.762
					c0,25.002,8.865,33.027,36.486,33.027c23.908,0,33.641-5.119,36.383-19.444H1048.471z M1014.6,175.021
					c0.404-10.482,5.254-14.565,17.297-14.565c12.754,0,17.648,3.946,18.055,14.565l0.047,1.207h-35.445L1014.6,175.021z"/>
				<polygon fill="#202C37" points="1150.773,151.009 1127.117,151.009 1100.086,181.598 1100.086,137.639 1080.514,137.639 
					1080.514,212.688 1100.086,212.688 1100.086,182.102 1127.117,212.688 1150.773,212.688 1123.512,181.852 				"/>
				<path fill="#202C37" d="M790.254,212.688h20.73v-14.82h-13.559c-9.166,0-13.076-3.681-13.076-12.309v-19.217h26.635v-14.062
					H784.35v-14.333l-19.563,4.645v9.688h-9.988v14.062h9.988v25.621C764.787,207.652,770.977,212.688,790.254,212.688z"/>
				<polygon fill="#202C37" points="649.072,151.009 633.912,192.003 618.89,151.009 598.882,151.009 623.901,213.871 
					616.03,232.189 635.349,232.189 668.402,151.009 				"/>
				<path fill="#202C37" d="M430.273,148.824c-11.882,0-19.388,2.926-23.619,9.211l-2.13,3.163v-10.189h-19.566v81.181h19.566
					V202.46l2.133,3.201c4.129,6.197,11.633,9.084,23.616,9.084c22.575,0,29.82-8.025,29.82-33.027
					C460.094,156.817,452.849,148.824,430.273,148.824z M422.582,199.525c-11.744,0-17.144-4.336-18.054-14.498l-0.004-6.384
					c0.914-10.271,6.313-14.608,18.058-14.608c13.72,0,18.583,4.626,18.583,17.683C441.165,194.865,436.302,199.525,422.582,199.525
					z"/>
				<path fill="#202C37" d="M859.857,148.824c-24.945,0-33.787,5.559-33.787,21.244v1.658h18.799v-1.658
					c0-8.091,5.791-9.748,14.486-9.748c13.318,0,17.17,2.849,17.17,12.697v3.851h-24.729c-21.408,0-28.279,4.572-28.279,18.809
					c0,13.544,8.193,19.068,28.279,19.068c2.488,0,4.756-0.134,6.836-0.391l-0.002,0.005c0.902-0.082,1.762-0.214,2.6-0.366
					c12.365-2.109,15.295-8.075,15.295-8.075v6.771h19.553v-43.006C895.963,154.089,886.824,148.824,859.857,148.824z
					 M841.93,195.035c0-6.979,5.533-8.207,17.166-8.207h17.43v5.136c0,7.798-5.375,11.273-17.43,11.273
					C847.709,203.237,841.93,201.97,841.93,195.035z"/>
				<path fill="#202C37" d="M977.768,155.01c-4.1-4.188-10.477-6.054-20.668-6.054c-2.938,0-5.582,0.218-7.979,0.636l0.008-0.016
					c-13.232,1.653-18.795,12.561-18.795,12.561v-11.128h-19.576v61.68h19.576v-32.885c0.27-11.146,5.402-15.892,17.168-15.892
					c12.482,0,16.91,4.29,16.91,16.394v32.383h19.57v-32.383C984.246,167.464,982.33,159.668,977.768,155.01z"/>
				<path fill="#202C37" d="M511.065,151.884L511.065,151.884c-13.325,1.635-18.576,9.734-18.576,9.734v-10.609h-19.562v61.68
					h19.562V178.26c0.322-8.632,5.456-12.297,17.171-12.297h14.329V151.02C519.071,151.084,514.776,151.318,511.065,151.884z"/>
			</g>
		</g>
	</g>
</g>
</svg>
