
<svg id="logo-white" width="303" height="54" viewBox="0 0 303 54" fill="none" xmlns="http://www.w3.org/2000/svg">
<path d="M61.9085 12.496C62.6978 12.496 63.3858 12.4 63.9725 12.208C64.5592 12.0053 65.0445 11.7227 65.4285 11.36C65.8232 10.9867 66.1165 10.5387 66.3085 10.016C66.5005 9.48267 66.5965 8.89067 66.5965 8.24C66.5965 7.62133 66.5005 7.06133 66.3085 6.56C66.1165 6.05867 65.8285 5.632 65.4445 5.28C65.0605 4.928 64.5752 4.66133 63.9885 4.48C63.4018 4.288 62.7085 4.192 61.9085 4.192H58.6925V12.496H61.9085ZM61.9085 0.863998C63.4552 0.863998 64.7938 1.04533 65.9245 1.408C67.0552 1.77067 67.9885 2.27733 68.7245 2.928C69.4605 3.57867 70.0045 4.35733 70.3565 5.264C70.7192 6.17067 70.9005 7.16267 70.9005 8.24C70.9005 9.36 70.7138 10.3893 70.3405 11.328C69.9672 12.256 69.4072 13.056 68.6605 13.728C67.9138 14.4 66.9752 14.9227 65.8445 15.296C64.7245 15.6693 63.4125 15.856 61.9085 15.856H58.6925V24H54.3885V0.863998H61.9085ZM81.193 11.872C82.0037 11.872 82.7077 11.7707 83.305 11.568C83.913 11.3653 84.409 11.088 84.793 10.736C85.1877 10.3733 85.481 9.94667 85.673 9.456C85.865 8.96533 85.961 8.42667 85.961 7.84C85.961 6.66667 85.5717 5.76533 84.793 5.136C84.025 4.50667 82.8463 4.192 81.257 4.192H78.505V11.872H81.193ZM92.265 24H88.377C87.641 24 87.1077 23.712 86.777 23.136L81.913 15.728C81.7317 15.4507 81.529 15.2533 81.305 15.136C81.0917 15.0187 80.7717 14.96 80.345 14.96H78.505V24H74.201V0.863998H81.257C82.825 0.863998 84.169 1.02933 85.289 1.36C86.4197 1.68 87.3423 2.13333 88.057 2.72C88.7823 3.30667 89.3157 4.01067 89.657 4.832C89.9983 5.64267 90.169 6.53867 90.169 7.52C90.169 8.29867 90.0517 9.03467 89.817 9.728C89.593 10.4213 89.2623 11.0507 88.825 11.616C88.3983 12.1813 87.865 12.6773 87.225 13.104C86.5957 13.5307 85.8757 13.8667 85.065 14.112C85.3423 14.272 85.5983 14.464 85.833 14.688C86.0677 14.9013 86.281 15.1573 86.473 15.456L92.265 24ZM110.7 2.448C110.7 2.93866 110.561 3.38667 110.284 3.792L98.4115 20.56H110.428V24H92.8275V22.304C92.8275 22.0907 92.8648 21.888 92.9395 21.696C93.0142 21.4933 93.1102 21.3067 93.2275 21.136L105.132 4.288H93.5795V0.863998H110.7V2.448ZM124.075 15.04V24H119.786V15.04L111.354 0.863998H115.147C115.52 0.863998 115.813 0.954666 116.027 1.136C116.251 1.31733 116.437 1.54667 116.587 1.824L120.811 9.552C121.056 10.0107 121.269 10.4427 121.451 10.848C121.643 11.2533 121.813 11.6587 121.963 12.064C122.101 11.6587 122.261 11.2533 122.443 10.848C122.624 10.4427 122.832 10.0107 123.067 9.552L127.275 1.824C127.392 1.58933 127.568 1.37067 127.803 1.168C128.037 0.965332 128.336 0.863998 128.699 0.863998H132.507L124.075 15.04ZM146.365 5.072C146.237 5.296 146.098 5.46133 145.949 5.568C145.81 5.664 145.634 5.712 145.421 5.712C145.197 5.712 144.951 5.632 144.685 5.472C144.429 5.30133 144.119 5.11467 143.757 4.912C143.394 4.70933 142.967 4.528 142.477 4.368C141.997 4.19733 141.426 4.112 140.765 4.112C140.167 4.112 139.645 4.18667 139.197 4.336C138.749 4.47467 138.37 4.672 138.061 4.928C137.762 5.184 137.538 5.49333 137.389 5.856C137.239 6.208 137.165 6.59733 137.165 7.024C137.165 7.568 137.314 8.02133 137.613 8.384C137.922 8.74667 138.327 9.056 138.829 9.312C139.33 9.568 139.901 9.79733 140.541 10C141.181 10.2027 141.837 10.4213 142.509 10.656C143.181 10.88 143.837 11.1467 144.477 11.456C145.117 11.7547 145.687 12.1387 146.189 12.608C146.69 13.0667 147.09 13.632 147.389 14.304C147.698 14.976 147.853 15.792 147.853 16.752C147.853 17.7973 147.671 18.7787 147.309 19.696C146.957 20.6027 146.434 21.3973 145.741 22.08C145.058 22.752 144.221 23.2853 143.229 23.68C142.237 24.064 141.101 24.256 139.821 24.256C139.085 24.256 138.359 24.1813 137.645 24.032C136.93 23.8933 136.242 23.6907 135.581 23.424C134.93 23.1573 134.317 22.8373 133.741 22.464C133.165 22.0907 132.653 21.6747 132.205 21.216L133.469 19.152C133.575 19.0027 133.714 18.88 133.885 18.784C134.055 18.6773 134.237 18.624 134.429 18.624C134.695 18.624 134.983 18.736 135.293 18.96C135.602 19.1733 135.97 19.4133 136.397 19.68C136.823 19.9467 137.319 20.192 137.885 20.416C138.461 20.6293 139.149 20.736 139.949 20.736C141.175 20.736 142.125 20.448 142.797 19.872C143.469 19.2853 143.805 18.448 143.805 17.36C143.805 16.752 143.65 16.256 143.341 15.872C143.042 15.488 142.642 15.168 142.141 14.912C141.639 14.6453 141.069 14.4213 140.429 14.24C139.789 14.0587 139.138 13.8613 138.477 13.648C137.815 13.4347 137.165 13.1787 136.525 12.88C135.885 12.5813 135.314 12.192 134.813 11.712C134.311 11.232 133.906 10.6347 133.597 9.92C133.298 9.19467 133.149 8.304 133.149 7.248C133.149 6.40533 133.314 5.584 133.645 4.784C133.986 3.984 134.477 3.27467 135.117 2.656C135.757 2.03733 136.546 1.54133 137.485 1.168C138.423 0.794666 139.501 0.608 140.717 0.608C142.082 0.608 143.341 0.821333 144.493 1.248C145.645 1.67467 146.626 2.272 147.437 3.04L146.365 5.072ZM167.767 4.4H160.791V24H156.487V4.4H149.511V0.863998H167.767V4.4ZM180.769 15.264L177.953 7.568C177.814 7.22667 177.67 6.82133 177.521 6.352C177.371 5.88267 177.222 5.376 177.073 4.832C176.934 5.376 176.79 5.888 176.641 6.368C176.491 6.83733 176.347 7.248 176.209 7.6L173.409 15.264H180.769ZM188.369 24H185.041C184.667 24 184.363 23.9093 184.129 23.728C183.894 23.536 183.718 23.3013 183.601 23.024L181.873 18.304H172.289L170.561 23.024C170.475 23.2693 170.31 23.4933 170.065 23.696C169.819 23.8987 169.515 24 169.153 24H165.793L174.897 0.863998H179.281L188.369 24ZM210.268 0.863998V24H208.06C207.718 24 207.43 23.9467 207.196 23.84C206.972 23.7227 206.753 23.5307 206.54 23.264L194.46 7.84C194.524 8.544 194.556 9.19467 194.556 9.792V24H190.764V0.863998H193.02C193.201 0.863998 193.356 0.874665 193.484 0.895998C193.622 0.906665 193.74 0.938665 193.836 0.991999C193.942 1.03467 194.044 1.104 194.14 1.2C194.236 1.28533 194.342 1.40267 194.46 1.552L206.588 17.04C206.556 16.6667 206.529 16.2987 206.508 15.936C206.486 15.5733 206.476 15.2373 206.476 14.928V0.863998H210.268ZM219.74 4.288V10.704H227.836V14.016H219.74V20.56H230.012V24H215.42V0.863998H230.012V4.288H219.74ZM238.13 10.56H239.138C239.543 10.56 239.879 10.5067 240.146 10.4C240.413 10.2827 240.642 10.1013 240.834 9.856L247.218 1.776C247.485 1.43467 247.762 1.2 248.05 1.072C248.349 0.933332 248.722 0.863998 249.17 0.863998H252.882L245.09 10.48C244.631 11.0667 244.157 11.4827 243.666 11.728C244.018 11.856 244.333 12.0373 244.61 12.272C244.898 12.496 245.17 12.7947 245.426 13.168L253.458 24H249.666C249.154 24 248.77 23.9307 248.514 23.792C248.269 23.6427 248.061 23.4293 247.89 23.152L241.346 14.608C241.143 14.32 240.909 14.1173 240.642 14C240.375 13.8827 239.991 13.824 239.49 13.824H238.13V24H233.826V0.863998H238.13V10.56ZM3.1417 39.912V43.764H8.0197V45.699H3.1417V51H0.711695V37.986H8.9197V39.912H3.1417ZM14.651 51H12.905V38.103H14.651V51ZM30.1989 38.103V51H29.3259C29.1879 51 29.0709 50.976 28.9749 50.928C28.8849 50.88 28.7949 50.799 28.7049 50.685L21.2439 40.965C21.2559 41.115 21.2649 41.262 21.2709 41.406C21.2769 41.55 21.2799 41.685 21.2799 41.811V51H19.7499V38.103H20.6499C20.7279 38.103 20.7939 38.109 20.8479 38.121C20.9019 38.127 20.9499 38.142 20.9919 38.166C21.0339 38.184 21.0759 38.214 21.1179 38.256C21.1599 38.292 21.2049 38.34 21.2529 38.4L28.7139 48.111C28.7019 47.955 28.6899 47.805 28.6779 47.661C28.6719 47.511 28.6689 47.37 28.6689 47.238V38.103H30.1989ZM42.145 46.212L40.12 40.965C40.06 40.809 39.997 40.629 39.931 40.425C39.865 40.215 39.802 39.993 39.742 39.759C39.616 40.245 39.487 40.65 39.355 40.974L37.33 46.212H42.145ZM45.781 51H44.431C44.275 51 44.149 50.961 44.053 50.883C43.957 50.805 43.885 50.706 43.837 50.586L42.631 47.472H36.844L35.638 50.586C35.602 50.694 35.533 50.79 35.431 50.874C35.329 50.958 35.203 51 35.053 51H33.703L38.86 38.103H40.624L45.781 51ZM59.7267 38.103V51H58.8537C58.7157 51 58.5987 50.976 58.5027 50.928C58.4127 50.88 58.3227 50.799 58.2327 50.685L50.7717 40.965C50.7837 41.115 50.7927 41.262 50.7987 41.406C50.8047 41.55 50.8077 41.685 50.8077 41.811V51H49.2777V38.103H50.1777C50.2557 38.103 50.3217 38.109 50.3757 38.121C50.4297 38.127 50.4777 38.142 50.5197 38.166C50.5617 38.184 50.6037 38.214 50.6457 38.256C50.6877 38.292 50.7327 38.34 50.7807 38.4L58.2417 48.111C58.2297 47.955 58.2177 47.805 58.2057 47.661C58.1997 47.511 58.1967 47.37 58.1967 47.238V38.103H59.7267ZM71.4208 40.119C71.3668 40.209 71.3068 40.278 71.2408 40.326C71.1808 40.368 71.1058 40.389 71.0158 40.389C70.9138 40.389 70.7938 40.338 70.6558 40.236C70.5178 40.134 70.3438 40.023 70.1338 39.903C69.9298 39.777 69.6808 39.663 69.3868 39.561C69.0988 39.459 68.7478 39.408 68.3338 39.408C67.9438 39.408 67.5988 39.462 67.2988 39.57C67.0048 39.672 66.7558 39.813 66.5518 39.993C66.3538 40.173 66.2038 40.386 66.1018 40.632C65.9998 40.872 65.9488 41.133 65.9488 41.415C65.9488 41.775 66.0358 42.075 66.2098 42.315C66.3898 42.549 66.6238 42.75 66.9118 42.918C67.2058 43.086 67.5358 43.233 67.9018 43.359C68.2738 43.479 68.6518 43.605 69.0358 43.737C69.4258 43.869 69.8038 44.019 70.1698 44.187C70.5418 44.349 70.8718 44.556 71.1598 44.808C71.4538 45.06 71.6878 45.369 71.8618 45.735C72.0418 46.101 72.1318 46.551 72.1318 47.085C72.1318 47.649 72.0358 48.18 71.8438 48.678C71.6518 49.17 71.3698 49.599 70.9978 49.965C70.6318 50.331 70.1788 50.619 69.6388 50.829C69.1048 51.039 68.4958 51.144 67.8118 51.144C66.9718 51.144 66.2098 50.994 65.5258 50.694C64.8418 50.388 64.2568 49.977 63.7708 49.461L64.2748 48.633C64.3228 48.567 64.3798 48.513 64.4458 48.471C64.5178 48.423 64.5958 48.399 64.6798 48.399C64.7578 48.399 64.8448 48.432 64.9408 48.498C65.0428 48.558 65.1568 48.636 65.2828 48.732C65.4088 48.828 65.5528 48.933 65.7148 49.047C65.8768 49.161 66.0598 49.266 66.2638 49.362C66.4738 49.458 66.7108 49.539 66.9748 49.605C67.2388 49.665 67.5358 49.695 67.8658 49.695C68.2798 49.695 68.6488 49.638 68.9728 49.524C69.2968 49.41 69.5698 49.251 69.7918 49.047C70.0198 48.837 70.1938 48.588 70.3138 48.3C70.4338 48.012 70.4938 47.691 70.4938 47.337C70.4938 46.947 70.4038 46.629 70.2238 46.383C70.0498 46.131 69.8188 45.921 69.5308 45.753C69.2428 45.585 68.9128 45.444 68.5408 45.33C68.1688 45.21 67.7908 45.09 67.4068 44.97C67.0228 44.844 66.6448 44.7 66.2728 44.538C65.9008 44.376 65.5708 44.166 65.2828 43.908C64.9948 43.65 64.7608 43.329 64.5808 42.945C64.4068 42.555 64.3198 42.075 64.3198 41.505C64.3198 41.049 64.4068 40.608 64.5808 40.182C64.7608 39.756 65.0188 39.378 65.3548 39.048C65.6968 38.718 66.1138 38.454 66.6058 38.256C67.1038 38.058 67.6738 37.959 68.3158 37.959C69.0358 37.959 69.6898 38.073 70.2778 38.301C70.8718 38.529 71.3938 38.859 71.8438 39.291L71.4208 40.119ZM84.3532 49.578L84.3442 51H76.3972V38.103H84.3442V39.525H78.1432V43.809H83.1652V45.177H78.1432V49.578H84.3532ZM88.1089 53.178C88.0609 53.136 88.0279 53.097 88.0099 53.061C87.9919 53.025 87.9829 52.98 87.9829 52.926C87.9829 52.884 87.9949 52.842 88.0189 52.8C88.0489 52.758 88.0819 52.719 88.1179 52.683C88.1779 52.617 88.2529 52.53 88.3429 52.422C88.4389 52.314 88.5349 52.185 88.6309 52.035C88.7269 51.891 88.8139 51.729 88.8919 51.549C88.9759 51.375 89.0359 51.189 89.0719 50.991C89.0539 50.997 89.0329 51 89.0089 51C88.9909 51 88.9729 51 88.9549 51C88.6429 51 88.3879 50.898 88.1899 50.694C87.9979 50.484 87.9019 50.217 87.9019 49.893C87.9019 49.611 87.9979 49.371 88.1899 49.173C88.3879 48.975 88.6489 48.876 88.9729 48.876C89.1529 48.876 89.3119 48.909 89.4499 48.975C89.5879 49.041 89.7019 49.134 89.7919 49.254C89.8879 49.368 89.9599 49.503 90.0079 49.659C90.0559 49.809 90.0799 49.974 90.0799 50.154C90.0799 50.424 90.0409 50.706 89.9629 51C89.8909 51.288 89.7799 51.573 89.6299 51.855C89.4859 52.143 89.3089 52.422 89.0989 52.692C88.8889 52.962 88.6489 53.211 88.3789 53.439L88.1089 53.178ZM103.101 39.912V43.521H107.655V45.384H103.101V49.065H108.879V51H100.671V37.986H108.879V39.912H103.101ZM124.201 44.556C124.201 45.522 124.048 46.401 123.742 47.193C123.436 47.985 123.004 48.663 122.446 49.227C121.888 49.791 121.216 50.229 120.43 50.541C119.65 50.847 118.786 51 117.838 51H113.023V38.103H117.838C118.786 38.103 119.65 38.259 120.43 38.571C121.216 38.877 121.888 39.315 122.446 39.885C123.004 40.449 123.436 41.127 123.742 41.919C124.048 42.711 124.201 43.59 124.201 44.556ZM122.41 44.556C122.41 43.764 122.302 43.056 122.086 42.432C121.87 41.808 121.564 41.28 121.168 40.848C120.772 40.416 120.292 40.086 119.728 39.858C119.164 39.63 118.534 39.516 117.838 39.516H114.769V49.587H117.838C118.534 49.587 119.164 49.473 119.728 49.245C120.292 49.017 120.772 48.69 121.168 48.264C121.564 47.832 121.87 47.304 122.086 46.68C122.302 46.056 122.41 45.348 122.41 44.556ZM133.493 49.614C134.027 49.614 134.504 49.524 134.924 49.344C135.344 49.164 135.698 48.912 135.986 48.588C136.28 48.264 136.502 47.877 136.652 47.427C136.808 46.977 136.886 46.482 136.886 45.942V38.103H138.623V45.942C138.623 46.686 138.503 47.376 138.263 48.012C138.029 48.648 137.69 49.2 137.246 49.668C136.808 50.13 136.271 50.493 135.635 50.757C134.999 51.021 134.285 51.153 133.493 51.153C132.701 51.153 131.987 51.021 131.351 50.757C130.715 50.493 130.175 50.13 129.731 49.668C129.287 49.2 128.945 48.648 128.705 48.012C128.471 47.376 128.354 46.686 128.354 45.942V38.103H130.091V45.933C130.091 46.473 130.166 46.968 130.316 47.418C130.472 47.868 130.694 48.255 130.982 48.579C131.276 48.903 131.633 49.158 132.053 49.344C132.479 49.524 132.959 49.614 133.493 49.614ZM145.29 43.755H145.947C146.175 43.755 146.358 43.728 146.496 43.674C146.634 43.614 146.76 43.515 146.874 43.377L151.167 38.517C151.287 38.361 151.413 38.253 151.545 38.193C151.677 38.133 151.839 38.103 152.031 38.103H153.507L148.593 43.656C148.473 43.8 148.356 43.92 148.242 44.016C148.134 44.106 148.017 44.181 147.891 44.241C148.053 44.295 148.2 44.376 148.332 44.484C148.464 44.586 148.593 44.721 148.719 44.889L153.849 51H152.337C152.223 51 152.124 50.994 152.04 50.982C151.962 50.964 151.893 50.94 151.833 50.91C151.773 50.874 151.719 50.835 151.671 50.793C151.629 50.745 151.587 50.691 151.545 50.631L147.099 45.51C146.979 45.36 146.85 45.255 146.712 45.195C146.574 45.129 146.364 45.096 146.082 45.096H145.29V51H143.553V38.103H145.29V43.755ZM164.12 46.212L162.095 40.965C162.035 40.809 161.972 40.629 161.906 40.425C161.84 40.215 161.777 39.993 161.717 39.759C161.591 40.245 161.462 40.65 161.33 40.974L159.305 46.212H164.12ZM167.756 51H166.406C166.25 51 166.124 50.961 166.028 50.883C165.932 50.805 165.86 50.706 165.812 50.586L164.606 47.472H158.819L157.613 50.586C157.577 50.694 157.508 50.79 157.406 50.874C157.304 50.958 157.178 51 157.028 51H155.678L160.835 38.103H162.599L167.756 51ZM179.972 48.336C180.068 48.336 180.152 48.375 180.224 48.453L180.917 49.2C180.389 49.812 179.747 50.289 178.991 50.631C178.241 50.973 177.332 51.144 176.264 51.144C175.34 51.144 174.5 50.985 173.744 50.667C172.988 50.343 172.343 49.893 171.809 49.317C171.275 48.735 170.861 48.039 170.567 47.229C170.273 46.419 170.126 45.528 170.126 44.556C170.126 43.584 170.279 42.693 170.585 41.883C170.891 41.073 171.32 40.377 171.872 39.795C172.43 39.213 173.096 38.763 173.87 38.445C174.644 38.121 175.499 37.959 176.435 37.959C177.353 37.959 178.163 38.106 178.865 38.4C179.567 38.694 180.185 39.093 180.719 39.597L180.143 40.398C180.107 40.458 180.059 40.509 179.999 40.551C179.945 40.587 179.87 40.605 179.774 40.605C179.666 40.605 179.534 40.548 179.378 40.434C179.222 40.314 179.018 40.182 178.766 40.038C178.514 39.894 178.199 39.765 177.821 39.651C177.443 39.531 176.978 39.471 176.426 39.471C175.76 39.471 175.151 39.588 174.599 39.822C174.047 40.05 173.57 40.383 173.168 40.821C172.772 41.259 172.463 41.793 172.241 42.423C172.019 43.053 171.908 43.764 171.908 44.556C171.908 45.36 172.022 46.077 172.25 46.707C172.484 47.337 172.799 47.871 173.195 48.309C173.597 48.741 174.068 49.071 174.608 49.299C175.154 49.527 175.742 49.641 176.372 49.641C176.756 49.641 177.101 49.62 177.407 49.578C177.719 49.53 178.004 49.458 178.262 49.362C178.526 49.266 178.769 49.146 178.991 49.002C179.219 48.852 179.444 48.675 179.666 48.471C179.768 48.381 179.87 48.336 179.972 48.336ZM189.188 46.545C189.188 47.265 189.098 47.91 188.918 48.48C188.744 49.05 188.483 49.533 188.135 49.929C187.793 50.319 187.37 50.619 186.866 50.829C186.362 51.039 185.783 51.144 185.129 51.144C184.535 51.144 183.929 51.06 183.311 50.892C183.323 50.718 183.338 50.547 183.356 50.379C183.374 50.205 183.389 50.034 183.401 49.866C183.413 49.764 183.449 49.683 183.509 49.623C183.575 49.557 183.674 49.524 183.806 49.524C183.914 49.524 184.055 49.551 184.229 49.605C184.409 49.659 184.649 49.686 184.949 49.686C185.345 49.686 185.699 49.626 186.011 49.506C186.323 49.386 186.584 49.2 186.794 48.948C187.004 48.696 187.163 48.375 187.271 47.985C187.385 47.589 187.442 47.121 187.442 46.581V38.103H189.188V46.545ZM200.826 46.212L198.801 40.965C198.741 40.809 198.678 40.629 198.612 40.425C198.546 40.215 198.483 39.993 198.423 39.759C198.297 40.245 198.168 40.65 198.036 40.974L196.011 46.212H200.826ZM204.462 51H203.112C202.956 51 202.83 50.961 202.734 50.883C202.638 50.805 202.566 50.706 202.518 50.586L201.312 47.472H195.525L194.319 50.586C194.283 50.694 194.214 50.79 194.112 50.874C194.01 50.958 193.884 51 193.734 51H192.384L197.541 38.103H199.305L204.462 51ZM207.482 53.178C207.434 53.136 207.401 53.097 207.383 53.061C207.365 53.025 207.356 52.98 207.356 52.926C207.356 52.884 207.368 52.842 207.392 52.8C207.422 52.758 207.455 52.719 207.491 52.683C207.551 52.617 207.626 52.53 207.716 52.422C207.812 52.314 207.908 52.185 208.004 52.035C208.1 51.891 208.187 51.729 208.265 51.549C208.349 51.375 208.409 51.189 208.445 50.991C208.427 50.997 208.406 51 208.382 51C208.364 51 208.346 51 208.328 51C208.016 51 207.761 50.898 207.563 50.694C207.371 50.484 207.275 50.217 207.275 49.893C207.275 49.611 207.371 49.371 207.563 49.173C207.761 48.975 208.022 48.876 208.346 48.876C208.526 48.876 208.685 48.909 208.823 48.975C208.961 49.041 209.075 49.134 209.165 49.254C209.261 49.368 209.333 49.503 209.381 49.659C209.429 49.809 209.453 49.974 209.453 50.154C209.453 50.424 209.414 50.706 209.336 51C209.264 51.288 209.153 51.573 209.003 51.855C208.859 52.143 208.682 52.422 208.472 52.692C208.262 52.962 208.022 53.211 207.752 53.439L207.482 53.178ZM223.978 44.178C224.434 44.178 224.83 44.121 225.166 44.007C225.508 43.893 225.787 43.737 226.003 43.539C226.225 43.335 226.39 43.095 226.498 42.819C226.606 42.543 226.66 42.24 226.66 41.91C226.66 41.25 226.441 40.743 226.003 40.389C225.571 40.035 224.908 39.858 224.014 39.858H222.466V44.178H223.978ZM230.206 51H228.019C227.605 51 227.305 50.838 227.119 50.514L224.383 46.347C224.281 46.191 224.167 46.08 224.041 46.014C223.921 45.948 223.741 45.915 223.501 45.915H222.466V51H220.045V37.986H224.014C224.896 37.986 225.652 38.079 226.282 38.265C226.918 38.445 227.437 38.7 227.839 39.03C228.247 39.36 228.547 39.756 228.739 40.218C228.931 40.674 229.027 41.178 229.027 41.73C229.027 42.168 228.961 42.582 228.829 42.972C228.703 43.362 228.517 43.716 228.271 44.034C228.031 44.352 227.731 44.631 227.371 44.871C227.017 45.111 226.612 45.3 226.156 45.438C226.312 45.528 226.456 45.636 226.588 45.762C226.72 45.882 226.84 46.026 226.948 46.194L230.206 51ZM245.525 44.556C245.525 45.522 245.372 46.41 245.066 47.22C244.76 48.024 244.328 48.717 243.77 49.299C243.212 49.881 242.54 50.334 241.754 50.658C240.974 50.976 240.11 51.135 239.162 51.135C238.214 51.135 237.35 50.976 236.57 50.658C235.79 50.334 235.121 49.881 234.563 49.299C234.005 48.717 233.573 48.024 233.267 47.22C232.961 46.41 232.808 45.522 232.808 44.556C232.808 43.59 232.961 42.705 233.267 41.901C233.573 41.091 234.005 40.395 234.563 39.813C235.121 39.225 235.79 38.769 236.57 38.445C237.35 38.121 238.214 37.959 239.162 37.959C240.11 37.959 240.974 38.121 241.754 38.445C242.54 38.769 243.212 39.225 243.77 39.813C244.328 40.395 244.76 41.091 245.066 41.901C245.372 42.705 245.525 43.59 245.525 44.556ZM243.734 44.556C243.734 43.764 243.626 43.053 243.41 42.423C243.194 41.793 242.888 41.262 242.492 40.83C242.096 40.392 241.616 40.056 241.052 39.822C240.488 39.588 239.858 39.471 239.162 39.471C238.472 39.471 237.845 39.588 237.281 39.822C236.717 40.056 236.234 40.392 235.832 40.83C235.436 41.262 235.13 41.793 234.914 42.423C234.698 43.053 234.59 43.764 234.59 44.556C234.59 45.348 234.698 46.059 234.914 46.689C235.13 47.313 235.436 47.844 235.832 48.282C236.234 48.714 236.717 49.047 237.281 49.281C237.845 49.509 238.472 49.623 239.162 49.623C239.858 49.623 240.488 49.509 241.052 49.281C241.616 49.047 242.096 48.714 242.492 48.282C242.888 47.844 243.194 47.313 243.41 46.689C243.626 46.059 243.734 45.348 243.734 44.556ZM258.128 38.751C258.128 38.949 258.068 39.141 257.948 39.327L250.649 49.578H258.02V51H248.354V50.316C248.354 50.22 248.369 50.13 248.399 50.046C248.435 49.962 248.477 49.881 248.525 49.803L255.842 39.525H248.696V38.103H258.128V38.751ZM278.865 38.103L274.842 51H273.276L270.009 41.163C269.979 41.067 269.949 40.965 269.919 40.857C269.895 40.749 269.868 40.635 269.838 40.515C269.808 40.635 269.778 40.749 269.748 40.857C269.718 40.965 269.688 41.067 269.658 41.163L266.373 51H264.807L260.784 38.103H262.233C262.389 38.103 262.518 38.142 262.62 38.22C262.728 38.298 262.797 38.397 262.827 38.517L265.491 47.481C265.533 47.643 265.572 47.817 265.608 48.003C265.65 48.189 265.689 48.387 265.725 48.597C265.767 48.387 265.809 48.189 265.851 48.003C265.899 47.811 265.95 47.637 266.004 47.481L269.037 38.517C269.073 38.415 269.142 38.322 269.244 38.238C269.352 38.148 269.481 38.103 269.631 38.103H270.135C270.291 38.103 270.417 38.142 270.513 38.22C270.609 38.298 270.681 38.397 270.729 38.517L273.753 47.481C273.807 47.637 273.855 47.805 273.897 47.985C273.945 48.165 273.99 48.354 274.032 48.552C274.062 48.354 274.095 48.165 274.131 47.985C274.167 47.805 274.206 47.637 274.248 47.481L276.921 38.517C276.951 38.409 277.017 38.313 277.119 38.229C277.227 38.145 277.356 38.103 277.506 38.103H278.865ZM294.325 44.556C294.325 45.522 294.172 46.41 293.866 47.22C293.56 48.024 293.128 48.717 292.57 49.299C292.012 49.881 291.34 50.334 290.554 50.658C289.774 50.976 288.91 51.135 287.962 51.135C287.014 51.135 286.15 50.976 285.37 50.658C284.59 50.334 283.921 49.881 283.363 49.299C282.805 48.717 282.373 48.024 282.067 47.22C281.761 46.41 281.608 45.522 281.608 44.556C281.608 43.59 281.761 42.705 282.067 41.901C282.373 41.091 282.805 40.395 283.363 39.813C283.921 39.225 284.59 38.769 285.37 38.445C286.15 38.121 287.014 37.959 287.962 37.959C288.91 37.959 289.774 38.121 290.554 38.445C291.34 38.769 292.012 39.225 292.57 39.813C293.128 40.395 293.56 41.091 293.866 41.901C294.172 42.705 294.325 43.59 294.325 44.556ZM292.534 44.556C292.534 43.764 292.426 43.053 292.21 42.423C291.994 41.793 291.688 41.262 291.292 40.83C290.896 40.392 290.416 40.056 289.852 39.822C289.288 39.588 288.658 39.471 287.962 39.471C287.272 39.471 286.645 39.588 286.081 39.822C285.517 40.056 285.034 40.392 284.632 40.83C284.236 41.262 283.93 41.793 283.714 42.423C283.498 43.053 283.39 43.764 283.39 44.556C283.39 45.348 283.498 46.059 283.714 46.689C283.93 47.313 284.236 47.844 284.632 48.282C285.034 48.714 285.517 49.047 286.081 49.281C286.645 49.509 287.272 49.623 287.962 49.623C288.658 49.623 289.288 49.509 289.852 49.281C290.416 49.047 290.896 48.714 291.292 48.282C291.688 47.844 291.994 47.313 292.21 46.689C292.426 46.059 292.534 45.348 292.534 44.556ZM291.382 34.332L288.448 36.906C288.358 36.99 288.271 37.041 288.187 37.059C288.103 37.077 288.001 37.086 287.881 37.086H286.729L288.808 34.62C288.91 34.488 289.012 34.407 289.114 34.377C289.222 34.347 289.375 34.332 289.573 34.332H291.382ZM302.419 46.545C302.419 47.265 302.329 47.91 302.149 48.48C301.975 49.05 301.714 49.533 301.366 49.929C301.024 50.319 300.601 50.619 300.097 50.829C299.593 51.039 299.014 51.144 298.36 51.144C297.766 51.144 297.16 51.06 296.542 50.892C296.554 50.718 296.569 50.547 296.587 50.379C296.605 50.205 296.62 50.034 296.632 49.866C296.644 49.764 296.68 49.683 296.74 49.623C296.806 49.557 296.905 49.524 297.037 49.524C297.145 49.524 297.286 49.551 297.46 49.605C297.64 49.659 297.88 49.686 298.18 49.686C298.576 49.686 298.93 49.626 299.242 49.506C299.554 49.386 299.815 49.2 300.025 48.948C300.235 48.696 300.394 48.375 300.502 47.985C300.616 47.589 300.673 47.121 300.673 46.581V38.103H302.419V46.545Z" fill="#212D37"/>
</svg>
