
<svg id="logo-footer" width="302" height="52" viewBox="0 0 302 52" fill="none" xmlns="http://www.w3.org/2000/svg">
<path d="M8.82519 12.496C9.61452 12.496 10.3025 12.4 10.8892 12.208C11.4759 12.0053 11.9612 11.7227 12.3452 11.36C12.7399 10.9867 13.0332 10.5387 13.2252 10.016C13.4172 9.48267 13.5132 8.89067 13.5132 8.24C13.5132 7.62133 13.4172 7.06133 13.2252 6.56C13.0332 6.05867 12.7452 5.632 12.3612 5.28C11.9772 4.928 11.4919 4.66133 10.9052 4.48C10.3185 4.288 9.62519 4.192 8.82519 4.192H5.60919V12.496H8.82519ZM8.82519 0.863998C10.3719 0.863998 11.7105 1.04533 12.8412 1.408C13.9719 1.77067 14.9052 2.27733 15.6412 2.928C16.3772 3.57867 16.9212 4.35733 17.2732 5.264C17.6359 6.17067 17.8172 7.16267 17.8172 8.24C17.8172 9.36 17.6305 10.3893 17.2572 11.328C16.8839 12.256 16.3239 13.056 15.5772 13.728C14.8305 14.4 13.8919 14.9227 12.7612 15.296C11.6412 15.6693 10.3292 15.856 8.82519 15.856H5.60919V24H1.30519V0.863998H8.82519ZM28.1097 11.872C28.9204 11.872 29.6244 11.7707 30.2217 11.568C30.8297 11.3653 31.3257 11.088 31.7097 10.736C32.1044 10.3733 32.3977 9.94667 32.5897 9.456C32.7817 8.96533 32.8777 8.42667 32.8777 7.84C32.8777 6.66667 32.4884 5.76533 31.7097 5.136C30.9417 4.50667 29.763 4.192 28.1737 4.192H25.4217V11.872H28.1097ZM39.1817 24H35.2937C34.5577 24 34.0244 23.712 33.6937 23.136L28.8297 15.728C28.6484 15.4507 28.4457 15.2533 28.2217 15.136C28.0084 15.0187 27.6884 14.96 27.2617 14.96H25.4217V24H21.1177V0.863998H28.1737C29.7417 0.863998 31.0857 1.02933 32.2057 1.36C33.3364 1.68 34.259 2.13333 34.9737 2.72C35.699 3.30667 36.2324 4.01067 36.5737 4.832C36.915 5.64267 37.0857 6.53867 37.0857 7.52C37.0857 8.29867 36.9684 9.03467 36.7337 9.728C36.5097 10.4213 36.179 11.0507 35.7417 11.616C35.315 12.1813 34.7817 12.6773 34.1417 13.104C33.5124 13.5307 32.7924 13.8667 31.9817 14.112C32.259 14.272 32.515 14.464 32.7497 14.688C32.9844 14.9013 33.1977 15.1573 33.3897 15.456L39.1817 24ZM57.6162 2.448C57.6162 2.93866 57.4775 3.38667 57.2002 3.792L45.3282 20.56H57.3442V24H39.7442V22.304C39.7442 22.0907 39.7815 21.888 39.8562 21.696C39.9309 21.4933 40.0269 21.3067 40.1442 21.136L52.0482 4.288H40.4962V0.863998H57.6162V2.448ZM70.9912 15.04V24H66.7032V15.04L58.2712 0.863998H62.0632C62.4365 0.863998 62.7299 0.954666 62.9432 1.136C63.1672 1.31733 63.3539 1.54667 63.5032 1.824L67.7272 9.552C67.9725 10.0107 68.1859 10.4427 68.3672 10.848C68.5592 11.2533 68.7299 11.6587 68.8792 12.064C69.0179 11.6587 69.1779 11.2533 69.3592 10.848C69.5405 10.4427 69.7485 10.0107 69.9832 9.552L74.1912 1.824C74.3085 1.58933 74.4845 1.37067 74.7192 1.168C74.9539 0.965332 75.2525 0.863998 75.6152 0.863998H79.4232L70.9912 15.04ZM93.2814 5.072C93.1534 5.296 93.0148 5.46133 92.8654 5.568C92.7268 5.664 92.5508 5.712 92.3374 5.712C92.1134 5.712 91.8681 5.632 91.6014 5.472C91.3454 5.30133 91.0361 5.11467 90.6734 4.912C90.3108 4.70933 89.8841 4.528 89.3934 4.368C88.9134 4.19733 88.3428 4.112 87.6814 4.112C87.0841 4.112 86.5614 4.18667 86.1134 4.336C85.6654 4.47467 85.2868 4.672 84.9774 4.928C84.6788 5.184 84.4548 5.49333 84.3054 5.856C84.1561 6.208 84.0814 6.59733 84.0814 7.024C84.0814 7.568 84.2308 8.02133 84.5294 8.384C84.8388 8.74667 85.2441 9.056 85.7454 9.312C86.2468 9.568 86.8174 9.79733 87.4574 10C88.0974 10.2027 88.7534 10.4213 89.4254 10.656C90.0974 10.88 90.7534 11.1467 91.3934 11.456C92.0334 11.7547 92.6041 12.1387 93.1054 12.608C93.6068 13.0667 94.0068 13.632 94.3054 14.304C94.6148 14.976 94.7694 15.792 94.7694 16.752C94.7694 17.7973 94.5881 18.7787 94.2254 19.696C93.8734 20.6027 93.3508 21.3973 92.6574 22.08C91.9748 22.752 91.1374 23.2853 90.1454 23.68C89.1534 24.064 88.0174 24.256 86.7374 24.256C86.0014 24.256 85.2761 24.1813 84.5614 24.032C83.8468 23.8933 83.1588 23.6907 82.4974 23.424C81.8468 23.1573 81.2334 22.8373 80.6574 22.464C80.0814 22.0907 79.5694 21.6747 79.1214 21.216L80.3854 19.152C80.4921 19.0027 80.6308 18.88 80.8014 18.784C80.9721 18.6773 81.1534 18.624 81.3454 18.624C81.6121 18.624 81.9001 18.736 82.2094 18.96C82.5188 19.1733 82.8868 19.4133 83.3134 19.68C83.7401 19.9467 84.2361 20.192 84.8014 20.416C85.3774 20.6293 86.0654 20.736 86.8654 20.736C88.0921 20.736 89.0414 20.448 89.7134 19.872C90.3854 19.2853 90.7214 18.448 90.7214 17.36C90.7214 16.752 90.5668 16.256 90.2574 15.872C89.9588 15.488 89.5588 15.168 89.0574 14.912C88.5561 14.6453 87.9854 14.4213 87.3454 14.24C86.7054 14.0587 86.0548 13.8613 85.3934 13.648C84.7321 13.4347 84.0814 13.1787 83.4414 12.88C82.8014 12.5813 82.2308 12.192 81.7294 11.712C81.2281 11.232 80.8228 10.6347 80.5134 9.92C80.2148 9.19467 80.0654 8.304 80.0654 7.248C80.0654 6.40533 80.2308 5.584 80.5614 4.784C80.9028 3.984 81.3934 3.27467 82.0334 2.656C82.6734 2.03733 83.4628 1.54133 84.4014 1.168C85.3401 0.794666 86.4174 0.608 87.6334 0.608C88.9988 0.608 90.2574 0.821333 91.4094 1.248C92.5614 1.67467 93.5428 2.272 94.3534 3.04L93.2814 5.072ZM114.684 4.4H107.708V24H103.404V4.4H96.4279V0.863998H114.684V4.4ZM127.685 15.264L124.869 7.568C124.731 7.22667 124.587 6.82133 124.437 6.352C124.288 5.88267 124.139 5.376 123.989 4.832C123.851 5.376 123.707 5.888 123.557 6.368C123.408 6.83733 123.264 7.248 123.125 7.6L120.325 15.264H127.685ZM135.285 24H131.957C131.584 24 131.28 23.9093 131.045 23.728C130.811 23.536 130.635 23.3013 130.517 23.024L128.789 18.304H119.205L117.477 23.024C117.392 23.2693 117.227 23.4933 116.981 23.696C116.736 23.8987 116.432 24 116.069 24H112.709L121.813 0.863998H126.197L135.285 24ZM157.184 0.863998V24H154.976C154.635 24 154.347 23.9467 154.112 23.84C153.888 23.7227 153.67 23.5307 153.456 23.264L141.376 7.84C141.44 8.544 141.472 9.19467 141.472 9.792V24H137.68V0.863998H139.936C140.118 0.863998 140.272 0.874665 140.4 0.895998C140.539 0.906665 140.656 0.938665 140.752 0.991999C140.859 1.03467 140.96 1.104 141.056 1.2C141.152 1.28533 141.259 1.40267 141.376 1.552L153.504 17.04C153.472 16.6667 153.446 16.2987 153.424 15.936C153.403 15.5733 153.392 15.2373 153.392 14.928V0.863998H157.184ZM166.656 4.288V10.704H174.752V14.016H166.656V20.56H176.928V24H162.336V0.863998H176.928V4.288H166.656ZM185.047 10.56H186.055C186.46 10.56 186.796 10.5067 187.063 10.4C187.329 10.2827 187.559 10.1013 187.751 9.856L194.135 1.776C194.401 1.43467 194.679 1.2 194.967 1.072C195.265 0.933332 195.639 0.863998 196.087 0.863998H199.799L192.007 10.48C191.548 11.0667 191.073 11.4827 190.583 11.728C190.935 11.856 191.249 12.0373 191.527 12.272C191.815 12.496 192.087 12.7947 192.343 13.168L200.375 24H196.583C196.071 24 195.687 23.9307 195.431 23.792C195.185 23.6427 194.977 23.4293 194.807 23.152L188.263 14.608C188.06 14.32 187.825 14.1173 187.559 14C187.292 13.8827 186.908 13.824 186.407 13.824H185.047V24H180.743V0.863998H185.047V10.56ZM2.60819 37.912V41.764H7.48619V43.699H2.60819V49H0.178187V35.986H8.38619V37.912H2.60819ZM14.1175 49H12.3715V36.103H14.1175V49ZM29.6654 36.103V49H28.7924C28.6544 49 28.5374 48.976 28.4414 48.928C28.3514 48.88 28.2614 48.799 28.1714 48.685L20.7104 38.965C20.7224 39.115 20.7314 39.262 20.7374 39.406C20.7434 39.55 20.7464 39.685 20.7464 39.811V49H19.2164V36.103H20.1164C20.1944 36.103 20.2604 36.109 20.3144 36.121C20.3684 36.127 20.4164 36.142 20.4584 36.166C20.5004 36.184 20.5424 36.214 20.5844 36.256C20.6264 36.292 20.6714 36.34 20.7194 36.4L28.1804 46.111C28.1684 45.955 28.1564 45.805 28.1444 45.661C28.1384 45.511 28.1354 45.37 28.1354 45.238V36.103H29.6654ZM41.6115 44.212L39.5865 38.965C39.5265 38.809 39.4635 38.629 39.3975 38.425C39.3315 38.215 39.2685 37.993 39.2085 37.759C39.0825 38.245 38.9535 38.65 38.8215 38.974L36.7965 44.212H41.6115ZM45.2475 49H43.8975C43.7415 49 43.6155 48.961 43.5195 48.883C43.4235 48.805 43.3515 48.706 43.3035 48.586L42.0975 45.472H36.3105L35.1045 48.586C35.0685 48.694 34.9995 48.79 34.8975 48.874C34.7955 48.958 34.6695 49 34.5195 49H33.1695L38.3265 36.103H40.0905L45.2475 49ZM59.1932 36.103V49H58.3202C58.1822 49 58.0652 48.976 57.9692 48.928C57.8792 48.88 57.7892 48.799 57.6992 48.685L50.2382 38.965C50.2502 39.115 50.2592 39.262 50.2652 39.406C50.2712 39.55 50.2742 39.685 50.2742 39.811V49H48.7442V36.103H49.6442C49.7222 36.103 49.7882 36.109 49.8422 36.121C49.8962 36.127 49.9442 36.142 49.9862 36.166C50.0282 36.184 50.0702 36.214 50.1122 36.256C50.1542 36.292 50.1992 36.34 50.2472 36.4L57.7082 46.111C57.6962 45.955 57.6842 45.805 57.6722 45.661C57.6662 45.511 57.6632 45.37 57.6632 45.238V36.103H59.1932ZM70.8873 38.119C70.8333 38.209 70.7732 38.278 70.7072 38.326C70.6472 38.368 70.5722 38.389 70.4822 38.389C70.3802 38.389 70.2602 38.338 70.1222 38.236C69.9842 38.134 69.8102 38.023 69.6003 37.903C69.3962 37.777 69.1472 37.663 68.8533 37.561C68.5652 37.459 68.2142 37.408 67.8002 37.408C67.4102 37.408 67.0652 37.462 66.7652 37.57C66.4712 37.672 66.2222 37.813 66.0182 37.993C65.8202 38.173 65.6702 38.386 65.5682 38.632C65.4662 38.872 65.4152 39.133 65.4152 39.415C65.4152 39.775 65.5022 40.075 65.6762 40.315C65.8562 40.549 66.0902 40.75 66.3782 40.918C66.6722 41.086 67.0022 41.233 67.3682 41.359C67.7402 41.479 68.1182 41.605 68.5022 41.737C68.8922 41.869 69.2702 42.019 69.6362 42.187C70.0082 42.349 70.3382 42.556 70.6262 42.808C70.9202 43.06 71.1542 43.369 71.3282 43.735C71.5082 44.101 71.5983 44.551 71.5983 45.085C71.5983 45.649 71.5023 46.18 71.3103 46.678C71.1183 47.17 70.8362 47.599 70.4642 47.965C70.0982 48.331 69.6452 48.619 69.1053 48.829C68.5712 49.039 67.9622 49.144 67.2782 49.144C66.4382 49.144 65.6762 48.994 64.9922 48.694C64.3082 48.388 63.7232 47.977 63.2372 47.461L63.7412 46.633C63.7892 46.567 63.8462 46.513 63.9122 46.471C63.9842 46.423 64.0622 46.399 64.1462 46.399C64.2242 46.399 64.3112 46.432 64.4072 46.498C64.5092 46.558 64.6232 46.636 64.7492 46.732C64.8752 46.828 65.0192 46.933 65.1812 47.047C65.3432 47.161 65.5262 47.266 65.7302 47.362C65.9402 47.458 66.1772 47.539 66.4412 47.605C66.7052 47.665 67.0022 47.695 67.3322 47.695C67.7462 47.695 68.1152 47.638 68.4392 47.524C68.7632 47.41 69.0362 47.251 69.2582 47.047C69.4862 46.837 69.6603 46.588 69.7802 46.3C69.9002 46.012 69.9602 45.691 69.9602 45.337C69.9602 44.947 69.8702 44.629 69.6902 44.383C69.5162 44.131 69.2852 43.921 68.9972 43.753C68.7092 43.585 68.3792 43.444 68.0072 43.33C67.6352 43.21 67.2572 43.09 66.8732 42.97C66.4892 42.844 66.1112 42.7 65.7392 42.538C65.3672 42.376 65.0372 42.166 64.7492 41.908C64.4612 41.65 64.2272 41.329 64.0472 40.945C63.8732 40.555 63.7862 40.075 63.7862 39.505C63.7862 39.049 63.8732 38.608 64.0472 38.182C64.2272 37.756 64.4852 37.378 64.8212 37.048C65.1632 36.718 65.5802 36.454 66.0722 36.256C66.5702 36.058 67.1402 35.959 67.7822 35.959C68.5022 35.959 69.1562 36.073 69.7442 36.301C70.3383 36.529 70.8603 36.859 71.3103 37.291L70.8873 38.119ZM83.8197 47.578L83.8107 49H75.8637V36.103H83.8107V37.525H77.6097V41.809H82.6317V43.177H77.6097V47.578H83.8197ZM87.5754 51.178C87.5274 51.136 87.4944 51.097 87.4764 51.061C87.4584 51.025 87.4494 50.98 87.4494 50.926C87.4494 50.884 87.4614 50.842 87.4854 50.8C87.5154 50.758 87.5484 50.719 87.5844 50.683C87.6444 50.617 87.7194 50.53 87.8094 50.422C87.9054 50.314 88.0014 50.185 88.0974 50.035C88.1934 49.891 88.2804 49.729 88.3584 49.549C88.4424 49.375 88.5024 49.189 88.5384 48.991C88.5204 48.997 88.4994 49 88.4754 49C88.4574 49 88.4394 49 88.4214 49C88.1094 49 87.8544 48.898 87.6564 48.694C87.4644 48.484 87.3684 48.217 87.3684 47.893C87.3684 47.611 87.4644 47.371 87.6564 47.173C87.8544 46.975 88.1154 46.876 88.4394 46.876C88.6194 46.876 88.7784 46.909 88.9164 46.975C89.0544 47.041 89.1684 47.134 89.2584 47.254C89.3544 47.368 89.4264 47.503 89.4744 47.659C89.5224 47.809 89.5464 47.974 89.5464 48.154C89.5464 48.424 89.5074 48.706 89.4294 49C89.3574 49.288 89.2464 49.573 89.0964 49.855C88.9524 50.143 88.7754 50.422 88.5654 50.692C88.3554 50.962 88.1154 51.211 87.8454 51.439L87.5754 51.178ZM102.568 37.912V41.521H107.122V43.384H102.568V47.065H108.346V49H100.138V35.986H108.346V37.912H102.568ZM123.667 42.556C123.667 43.522 123.514 44.401 123.208 45.193C122.902 45.985 122.47 46.663 121.912 47.227C121.354 47.791 120.682 48.229 119.896 48.541C119.116 48.847 118.252 49 117.304 49H112.489V36.103H117.304C118.252 36.103 119.116 36.259 119.896 36.571C120.682 36.877 121.354 37.315 121.912 37.885C122.47 38.449 122.902 39.127 123.208 39.919C123.514 40.711 123.667 41.59 123.667 42.556ZM121.876 42.556C121.876 41.764 121.768 41.056 121.552 40.432C121.336 39.808 121.03 39.28 120.634 38.848C120.238 38.416 119.758 38.086 119.194 37.858C118.63 37.63 118 37.516 117.304 37.516H114.235V47.587H117.304C118 47.587 118.63 47.473 119.194 47.245C119.758 47.017 120.238 46.69 120.634 46.264C121.03 45.832 121.336 45.304 121.552 44.68C121.768 44.056 121.876 43.348 121.876 42.556ZM132.96 47.614C133.494 47.614 133.971 47.524 134.391 47.344C134.811 47.164 135.165 46.912 135.453 46.588C135.747 46.264 135.969 45.877 136.119 45.427C136.275 44.977 136.353 44.482 136.353 43.942V36.103H138.09V43.942C138.09 44.686 137.97 45.376 137.73 46.012C137.496 46.648 137.157 47.2 136.713 47.668C136.275 48.13 135.738 48.493 135.102 48.757C134.466 49.021 133.752 49.153 132.96 49.153C132.168 49.153 131.454 49.021 130.818 48.757C130.182 48.493 129.642 48.13 129.198 47.668C128.754 47.2 128.412 46.648 128.172 46.012C127.938 45.376 127.821 44.686 127.821 43.942V36.103H129.558V43.933C129.558 44.473 129.633 44.968 129.783 45.418C129.939 45.868 130.161 46.255 130.449 46.579C130.743 46.903 131.1 47.158 131.52 47.344C131.946 47.524 132.426 47.614 132.96 47.614ZM144.756 41.755H145.413C145.641 41.755 145.824 41.728 145.962 41.674C146.1 41.614 146.226 41.515 146.34 41.377L150.633 36.517C150.753 36.361 150.879 36.253 151.011 36.193C151.143 36.133 151.305 36.103 151.497 36.103H152.973L148.059 41.656C147.939 41.8 147.822 41.92 147.708 42.016C147.6 42.106 147.483 42.181 147.357 42.241C147.519 42.295 147.666 42.376 147.798 42.484C147.93 42.586 148.059 42.721 148.185 42.889L153.315 49H151.803C151.689 49 151.59 48.994 151.506 48.982C151.428 48.964 151.359 48.94 151.299 48.91C151.239 48.874 151.185 48.835 151.137 48.793C151.095 48.745 151.053 48.691 151.011 48.631L146.565 43.51C146.445 43.36 146.316 43.255 146.178 43.195C146.04 43.129 145.83 43.096 145.548 43.096H144.756V49H143.019V36.103H144.756V41.755ZM163.586 44.212L161.561 38.965C161.501 38.809 161.438 38.629 161.372 38.425C161.306 38.215 161.243 37.993 161.183 37.759C161.057 38.245 160.928 38.65 160.796 38.974L158.771 44.212H163.586ZM167.222 49H165.872C165.716 49 165.59 48.961 165.494 48.883C165.398 48.805 165.326 48.706 165.278 48.586L164.072 45.472H158.285L157.079 48.586C157.043 48.694 156.974 48.79 156.872 48.874C156.77 48.958 156.644 49 156.494 49H155.144L160.301 36.103H162.065L167.222 49ZM179.439 46.336C179.535 46.336 179.619 46.375 179.691 46.453L180.384 47.2C179.856 47.812 179.214 48.289 178.458 48.631C177.708 48.973 176.799 49.144 175.731 49.144C174.807 49.144 173.967 48.985 173.211 48.667C172.455 48.343 171.81 47.893 171.276 47.317C170.742 46.735 170.328 46.039 170.034 45.229C169.74 44.419 169.593 43.528 169.593 42.556C169.593 41.584 169.746 40.693 170.052 39.883C170.358 39.073 170.787 38.377 171.339 37.795C171.897 37.213 172.563 36.763 173.337 36.445C174.111 36.121 174.966 35.959 175.902 35.959C176.82 35.959 177.63 36.106 178.332 36.4C179.034 36.694 179.652 37.093 180.186 37.597L179.61 38.398C179.574 38.458 179.526 38.509 179.466 38.551C179.412 38.587 179.337 38.605 179.241 38.605C179.133 38.605 179.001 38.548 178.845 38.434C178.689 38.314 178.485 38.182 178.233 38.038C177.981 37.894 177.666 37.765 177.288 37.651C176.91 37.531 176.445 37.471 175.893 37.471C175.227 37.471 174.618 37.588 174.066 37.822C173.514 38.05 173.037 38.383 172.635 38.821C172.239 39.259 171.93 39.793 171.708 40.423C171.486 41.053 171.375 41.764 171.375 42.556C171.375 43.36 171.489 44.077 171.717 44.707C171.951 45.337 172.266 45.871 172.662 46.309C173.064 46.741 173.535 47.071 174.075 47.299C174.621 47.527 175.209 47.641 175.839 47.641C176.223 47.641 176.568 47.62 176.874 47.578C177.186 47.53 177.471 47.458 177.729 47.362C177.993 47.266 178.236 47.146 178.458 47.002C178.686 46.852 178.911 46.675 179.133 46.471C179.235 46.381 179.337 46.336 179.439 46.336ZM188.654 44.545C188.654 45.265 188.564 45.91 188.384 46.48C188.21 47.05 187.949 47.533 187.601 47.929C187.259 48.319 186.836 48.619 186.332 48.829C185.828 49.039 185.249 49.144 184.595 49.144C184.001 49.144 183.395 49.06 182.777 48.892C182.789 48.718 182.804 48.547 182.822 48.379C182.84 48.205 182.855 48.034 182.867 47.866C182.879 47.764 182.915 47.683 182.975 47.623C183.041 47.557 183.14 47.524 183.272 47.524C183.38 47.524 183.521 47.551 183.695 47.605C183.875 47.659 184.115 47.686 184.415 47.686C184.811 47.686 185.165 47.626 185.477 47.506C185.789 47.386 186.05 47.2 186.26 46.948C186.47 46.696 186.629 46.375 186.737 45.985C186.851 45.589 186.908 45.121 186.908 44.581V36.103H188.654V44.545ZM200.293 44.212L198.268 38.965C198.208 38.809 198.145 38.629 198.079 38.425C198.013 38.215 197.95 37.993 197.89 37.759C197.764 38.245 197.635 38.65 197.503 38.974L195.478 44.212H200.293ZM203.929 49H202.579C202.423 49 202.297 48.961 202.201 48.883C202.105 48.805 202.033 48.706 201.985 48.586L200.779 45.472H194.992L193.786 48.586C193.75 48.694 193.681 48.79 193.579 48.874C193.477 48.958 193.351 49 193.201 49H191.851L197.008 36.103H198.772L203.929 49ZM206.948 51.178C206.9 51.136 206.867 51.097 206.849 51.061C206.831 51.025 206.822 50.98 206.822 50.926C206.822 50.884 206.834 50.842 206.858 50.8C206.888 50.758 206.921 50.719 206.957 50.683C207.017 50.617 207.092 50.53 207.182 50.422C207.278 50.314 207.374 50.185 207.47 50.035C207.566 49.891 207.653 49.729 207.731 49.549C207.815 49.375 207.875 49.189 207.911 48.991C207.893 48.997 207.872 49 207.848 49C207.83 49 207.812 49 207.794 49C207.482 49 207.227 48.898 207.029 48.694C206.837 48.484 206.741 48.217 206.741 47.893C206.741 47.611 206.837 47.371 207.029 47.173C207.227 46.975 207.488 46.876 207.812 46.876C207.992 46.876 208.151 46.909 208.289 46.975C208.427 47.041 208.541 47.134 208.631 47.254C208.727 47.368 208.799 47.503 208.847 47.659C208.895 47.809 208.919 47.974 208.919 48.154C208.919 48.424 208.88 48.706 208.802 49C208.73 49.288 208.619 49.573 208.469 49.855C208.325 50.143 208.148 50.422 207.938 50.692C207.728 50.962 207.488 51.211 207.218 51.439L206.948 51.178ZM223.444 42.178C223.9 42.178 224.296 42.121 224.632 42.007C224.974 41.893 225.253 41.737 225.469 41.539C225.691 41.335 225.856 41.095 225.964 40.819C226.072 40.543 226.126 40.24 226.126 39.91C226.126 39.25 225.907 38.743 225.469 38.389C225.037 38.035 224.374 37.858 223.48 37.858H221.932V42.178H223.444ZM229.672 49H227.485C227.071 49 226.771 48.838 226.585 48.514L223.849 44.347C223.747 44.191 223.633 44.08 223.507 44.014C223.387 43.948 223.207 43.915 222.967 43.915H221.932V49H219.511V35.986H223.48C224.362 35.986 225.118 36.079 225.748 36.265C226.384 36.445 226.903 36.7 227.305 37.03C227.713 37.36 228.013 37.756 228.205 38.218C228.397 38.674 228.493 39.178 228.493 39.73C228.493 40.168 228.427 40.582 228.295 40.972C228.169 41.362 227.983 41.716 227.737 42.034C227.497 42.352 227.197 42.631 226.837 42.871C226.483 43.111 226.078 43.3 225.622 43.438C225.778 43.528 225.922 43.636 226.054 43.762C226.186 43.882 226.306 44.026 226.414 44.194L229.672 49ZM244.991 42.556C244.991 43.522 244.838 44.41 244.532 45.22C244.226 46.024 243.794 46.717 243.236 47.299C242.678 47.881 242.006 48.334 241.22 48.658C240.44 48.976 239.576 49.135 238.628 49.135C237.68 49.135 236.816 48.976 236.036 48.658C235.256 48.334 234.587 47.881 234.029 47.299C233.471 46.717 233.039 46.024 232.733 45.22C232.427 44.41 232.274 43.522 232.274 42.556C232.274 41.59 232.427 40.705 232.733 39.901C233.039 39.091 233.471 38.395 234.029 37.813C234.587 37.225 235.256 36.769 236.036 36.445C236.816 36.121 237.68 35.959 238.628 35.959C239.576 35.959 240.44 36.121 241.22 36.445C242.006 36.769 242.678 37.225 243.236 37.813C243.794 38.395 244.226 39.091 244.532 39.901C244.838 40.705 244.991 41.59 244.991 42.556ZM243.2 42.556C243.2 41.764 243.092 41.053 242.876 40.423C242.66 39.793 242.354 39.262 241.958 38.83C241.562 38.392 241.082 38.056 240.518 37.822C239.954 37.588 239.324 37.471 238.628 37.471C237.938 37.471 237.311 37.588 236.747 37.822C236.183 38.056 235.7 38.392 235.298 38.83C234.902 39.262 234.596 39.793 234.38 40.423C234.164 41.053 234.056 41.764 234.056 42.556C234.056 43.348 234.164 44.059 234.38 44.689C234.596 45.313 234.902 45.844 235.298 46.282C235.7 46.714 236.183 47.047 236.747 47.281C237.311 47.509 237.938 47.623 238.628 47.623C239.324 47.623 239.954 47.509 240.518 47.281C241.082 47.047 241.562 46.714 241.958 46.282C242.354 45.844 242.66 45.313 242.876 44.689C243.092 44.059 243.2 43.348 243.2 42.556ZM257.595 36.751C257.595 36.949 257.535 37.141 257.415 37.327L250.116 47.578H257.487V49H247.821V48.316C247.821 48.22 247.836 48.13 247.866 48.046C247.902 47.962 247.944 47.881 247.992 47.803L255.309 37.525H248.163V36.103H257.595V36.751ZM278.332 36.103L274.309 49H272.743L269.476 39.163C269.446 39.067 269.416 38.965 269.386 38.857C269.362 38.749 269.335 38.635 269.305 38.515C269.275 38.635 269.245 38.749 269.215 38.857C269.185 38.965 269.155 39.067 269.125 39.163L265.84 49H264.274L260.251 36.103H261.7C261.856 36.103 261.985 36.142 262.087 36.22C262.195 36.298 262.264 36.397 262.294 36.517L264.958 45.481C265 45.643 265.039 45.817 265.075 46.003C265.117 46.189 265.156 46.387 265.192 46.597C265.234 46.387 265.276 46.189 265.318 46.003C265.366 45.811 265.417 45.637 265.471 45.481L268.504 36.517C268.54 36.415 268.609 36.322 268.711 36.238C268.819 36.148 268.948 36.103 269.098 36.103H269.602C269.758 36.103 269.884 36.142 269.98 36.22C270.076 36.298 270.148 36.397 270.196 36.517L273.22 45.481C273.274 45.637 273.322 45.805 273.364 45.985C273.412 46.165 273.457 46.354 273.499 46.552C273.529 46.354 273.562 46.165 273.598 45.985C273.634 45.805 273.673 45.637 273.715 45.481L276.388 36.517C276.418 36.409 276.484 36.313 276.586 36.229C276.694 36.145 276.823 36.103 276.973 36.103H278.332ZM293.792 42.556C293.792 43.522 293.639 44.41 293.333 45.22C293.027 46.024 292.595 46.717 292.037 47.299C291.479 47.881 290.807 48.334 290.021 48.658C289.241 48.976 288.377 49.135 287.429 49.135C286.481 49.135 285.617 48.976 284.837 48.658C284.057 48.334 283.388 47.881 282.83 47.299C282.272 46.717 281.84 46.024 281.534 45.22C281.228 44.41 281.075 43.522 281.075 42.556C281.075 41.59 281.228 40.705 281.534 39.901C281.84 39.091 282.272 38.395 282.83 37.813C283.388 37.225 284.057 36.769 284.837 36.445C285.617 36.121 286.481 35.959 287.429 35.959C288.377 35.959 289.241 36.121 290.021 36.445C290.807 36.769 291.479 37.225 292.037 37.813C292.595 38.395 293.027 39.091 293.333 39.901C293.639 40.705 293.792 41.59 293.792 42.556ZM292.001 42.556C292.001 41.764 291.893 41.053 291.677 40.423C291.461 39.793 291.155 39.262 290.759 38.83C290.363 38.392 289.883 38.056 289.319 37.822C288.755 37.588 288.125 37.471 287.429 37.471C286.739 37.471 286.112 37.588 285.548 37.822C284.984 38.056 284.501 38.392 284.099 38.83C283.703 39.262 283.397 39.793 283.181 40.423C282.965 41.053 282.857 41.764 282.857 42.556C282.857 43.348 282.965 44.059 283.181 44.689C283.397 45.313 283.703 45.844 284.099 46.282C284.501 46.714 284.984 47.047 285.548 47.281C286.112 47.509 286.739 47.623 287.429 47.623C288.125 47.623 288.755 47.509 289.319 47.281C289.883 47.047 290.363 46.714 290.759 46.282C291.155 45.844 291.461 45.313 291.677 44.689C291.893 44.059 292.001 43.348 292.001 42.556ZM290.849 32.332L287.915 34.906C287.825 34.99 287.738 35.041 287.654 35.059C287.57 35.077 287.468 35.086 287.348 35.086H286.196L288.275 32.62C288.377 32.488 288.479 32.407 288.581 32.377C288.689 32.347 288.842 32.332 289.04 32.332H290.849ZM301.885 44.545C301.885 45.265 301.795 45.91 301.615 46.48C301.441 47.05 301.18 47.533 300.832 47.929C300.49 48.319 300.067 48.619 299.563 48.829C299.059 49.039 298.48 49.144 297.826 49.144C297.232 49.144 296.626 49.06 296.008 48.892C296.02 48.718 296.035 48.547 296.053 48.379C296.071 48.205 296.086 48.034 296.098 47.866C296.11 47.764 296.146 47.683 296.206 47.623C296.272 47.557 296.371 47.524 296.503 47.524C296.611 47.524 296.752 47.551 296.926 47.605C297.106 47.659 297.346 47.686 297.646 47.686C298.042 47.686 298.396 47.626 298.708 47.506C299.02 47.386 299.281 47.2 299.491 46.948C299.701 46.696 299.86 46.375 299.968 45.985C300.082 45.589 300.139 45.121 300.139 44.581V36.103H301.885V44.545Z" fill="#212D37"/>
</svg>
